<svg xmlns="http://www.w3.org/2000/svg" id="Layer_1" data-name="Layer 1" viewBox="0 0 910.68 542.01"><defs><style>      .cls-1 {        fill: #231f20;      }      .cls-1, .cls-2 {        stroke-width: 0px;      }      .cls-2 {        fill: #0057a4;      }    </style></defs><path class="cls-2" d="M113.67,352.67c-.19,0-.39-.04-.57-.11-33.22-13.75-61.47-36.82-81.71-66.73C10.66,255.19-.19,219.37,0,182.22c.25-48.76,19.4-94.54,53.9-128.93C88.39,18.93,134.17,0,182.81,0h.98c51.12.27,100.13,22.2,134.5,60.16.33.27.54.69.54,1.15,0,.83-.68,1.52-1.51,1.5h0c-.37,0-.73-.13-1.02-.4-32.53-30.16-74.87-46.9-119.21-47.13h-.95c-47.06,0-91.37,18.32-124.76,51.58-33.4,33.28-51.93,77.59-52.17,124.78-.35,66.68,36.12,127.3,95.16,158.19.71.37,1,1.24.66,1.96-.25.54-.79.87-1.36.87Z"></path><path class="cls-2" d="M274.65,144.98c0-3.14,1.35-5.98,3.49-7.96.81-.75,1.74-1.38,2.75-1.86,1.4-.66,2.97-1.05,4.62-1.05h33.18v2.76c0,1.69-1.16,3.11-2.73,3.5l-2.08.31c-1.89.33-3.79.8-5.63,1.41-4.08,1.3-5.22,4.4-5.22,8.16v60.08c0,22.35,10.11,32.13,29.04,32.13s29.52-11.58,29.52-33.27v-64.18c0-6,4.86-10.87,10.86-10.87l14.19-.04v2.76c0,1.69-1.16,3.11-2.73,3.5l-.84.12c-2.3.32-4.62.86-6.87,1.61-4.08,1.3-5.22,4.4-5.22,8.16l.06,61.87c0,12.23-4.24,22.18-12.56,29.85-8.32,7.5-19.41,11.25-33.27,11.25-32.13,0-50.56-15.33-50.56-41.27v-67Z"></path><g><path class="cls-2" d="M257.81,175.05c.1.24.23.46.36.68l-.37-.71s0,.02.01.03Z"></path><path class="cls-2" d="M268.59,220.55c-2.5-1.66-5.87-.99-7.54,1.51h0c-9.01,13.37-19.52,19.94-32.97,19.94-10.27,0-18.76-3.43-24.79-11.74-5.87-7.67-9.79-20.39-9.79-38.17,0-31.8,10.6-50.23,30.66-50.23,15.41,0,25.76,10.27,33.62,33.17l.37.71c.93,1.55,2.59,2.6,4.52,2.65h3.25l.06-33.71c-.1-3-1.41-5.68-3.47-7.59-.81-.75-1.73-1.38-2.75-1.86-1.41-.66-2.97-1.05-4.63-1.05h-31.96c-17.45,0-33.27,6.2-43.87,16.8-11.09,10.93-17.45,26.26-17.45,43.71s6.36,32.79,16.96,42.73c10.6,10.28,25.61,15.82,42.08,15.82,13.7,0,23.49-3.59,31.8-9.46,7.67-5.22,13.38-12.72,17.95-22.02l-2.07-1.22Z"></path></g><g><path class="cls-2" d="M151.4,198.89c-.91-.39-1.87-.64-2.88-.78-.49-.07-.98-.15-1.49-.15h-33.66l.02,1.71c0,2.36,1.51,4.35,3.61,5.1.49.18,1.01.28,1.55.31.09,0,.18.03.27.03-.09,0-.18-.02-.27-.03,2.48.52,5.04,1.19,6.89,2.01,4.07,1.96,5.05,4.41,5.05,8.16v23c-3.91,3.75-11.58,7.01-20.88,7.01-20.06,0-31.32-19.9-31.32-53.18,0-31.32,11.59-50.23,31.97-50.23,16.32,0,26.94,10.54,34.68,33.12.02.04.03.09.05.13.81,1.9,2.68,3.23,4.86,3.28h3.15v-33.35c0-3.15-1.35-5.98-3.49-7.96-.81-.75-1.73-1.38-2.75-1.86-1.39-.65-2.93-1.03-4.56-1.04h-33.08c-18.92.01-34.74,5.89-45.67,16.81-11.09,10.61-16.96,26.1-16.96,43.71,0,18.92,6.53,33.76,17.45,43.55,10.61,9.95,25.45,15,41.76,15,8.81,0,18.43-1.46,28.71-4.24,8.25-2.23,14.9-4.66,20-7.14l.82-.4c1.57-.92,2.62-2.59,2.67-4.53v-28.12c0-4.44-2.67-8.24-6.49-9.93Z"></path><path class="cls-2" d="M142.13,134.16s.04,0,.07,0"></path></g><path class="cls-1" d="M175.85,303.71c-1,.2-3.12.4-4.18.93-1.33.6-1.79,1.86-1.79,3.45v8.83c.07.86.07,1.66.13,2.26-5.78,2.59-11.42,3.98-16.93,3.98-5.91,0-11.61-2.32-15.66-6.37-4.05-4.05-6.7-10.09-6.7-17.32s2.39-13.07,6.63-17.52c4.18-4.31,10.02-6.84,16.46-6.84,5.24,0,8.96,1.39,11.88,3.18l1.33-2.19h2.59l.26,16.06h-2.65c-.86-3.52-2.12-7.1-4.25-9.82-2.12-2.72-5.11-4.51-9.36-4.51-4.58,0-8.23,1.93-10.88,5.64-2.65,3.52-4.11,9.09-4.11,15.66,0,5.84,1.39,11.21,4.11,14.93,2.65,3.92,6.77,6.24,11.82,6.24,3.78,0,7.23-1.46,8.56-2.72.33-2.32.26-4.78.26-6.37v-2.52c0-1.79-.33-3.32-1.92-3.92-1.39-.73-4.38-.99-5.71-1.06v-2.32h20.11v2.32Z"></path><path class="cls-1" d="M192.96,322.1h-15.6v-2.12c1-.07,2.19-.2,2.99-.4,1.13-.33,1.79-1.33,1.79-2.92v-33.85c0-1.53-.73-2.99-1.79-3.79-.8-.53-3.39-.99-4.65-1.06v-2.12l12.01-.73.46.46v40.69c0,1.53.53,2.46,1.79,2.99,1,.46,1.86.66,2.99.73v2.12Z"></path><path class="cls-1" d="M478.57,322.1h-15.6v-2.12c1-.07,2.19-.2,2.99-.4,1.13-.33,1.79-1.33,1.79-2.92v-33.85c0-1.53-.73-2.99-1.79-3.79-.8-.53-3.39-.99-4.65-1.06v-2.12l12.01-.73.46.46v40.69c0,1.53.53,2.46,1.79,2.99,1,.46,1.86.66,2.99.73v2.12Z"></path><path class="cls-1" d="M226.54,321.5c-2.06.8-3.32,1.26-5.24,1.26-3.38,0-5.44-1.66-5.97-4.65h-.2c-2.85,3.12-5.84,4.78-10.35,4.78-4.78,0-8.23-3.19-8.23-7.96,0-2.46.73-4.38,2.06-5.91,1.13-1.33,3.12-2.39,4.65-2.98,1-.33,2.92-1,5.91-1.99,2.98-1,4.98-1.79,6.04-2.39v-3.19c0-.53-.2-2.39-.93-3.91-.86-1.59-2.32-2.92-5.18-2.92-2.06,0-3.85.8-4.58,1.53,0,.86.6,2.85.6,4.25,0,1.53-1.46,2.99-3.85,2.99-2.19,0-3.19-1.79-3.19-3.72s1.53-3.85,3.85-5.24c1.93-1.26,4.91-2.19,7.57-2.19,3.65,0,6.24.33,8.43,1.99,2.19,1.59,3.38,4.25,3.38,8.56,0,6.11-.2,10.35-.2,16,0,1.66.53,2.59,1.79,3.32.6.33,2.26.33,3.65.33v2.06ZM215.26,304.38c-3.72,1.13-6.31,1.99-8.69,3.58-2.12,1.39-3.52,3.45-3.52,6.17,0,3.52,2.12,5.18,4.98,5.18,3.12,0,5.44-1.66,7.04-3.72l.2-11.22Z"></path><path class="cls-1" d="M252.95,312.87c0,2.99-1.13,5.38-3.39,7.3-2.19,1.86-5.04,2.79-8.56,2.79-3.72,0-7.17-1.79-8.5-2.85l-.66,2.06h-2.39l-.33-11.08h2.19c.33,1.66,1.59,4.18,3.19,5.97,1.66,1.93,4.05,3.39,6.97,3.39,4.18,0,6.5-1.92,6.5-5.44,0-1.79-.73-3.05-2.12-4.05-1.39-1.06-3.52-1.79-6.1-2.59-2.06-.53-4.78-1.66-6.57-3.05-1.86-1.59-3.25-3.72-3.25-6.7,0-2.59,1-4.85,2.92-6.64,1.92-1.79,4.58-2.72,7.83-2.72,2.46,0,5.38.8,7.04,1.66l.73-1.73h2.32l.53,10.29h-2.26c-.86-4.58-4.11-7.77-8.43-7.77-3.52,0-5.71,2.12-5.71,4.58,0,1.92.66,3.19,1.99,4.05,1.33.86,3.19,1.53,6.11,2.52,2.85.86,5.51,2.19,7.17,3.58,1.79,1.59,2.79,3.52,2.79,6.44Z"></path><path class="cls-1" d="M287.26,325.42c0,3.12-1.39,5.9-4.05,7.83-2.92,2.06-6.77,3.25-12.68,3.25-9.62,0-14.4-2.85-14.4-8.37,0-4.31,3.85-7.03,9.16-7.3v-.4c-1.26-.46-2.79-1-3.78-1.79-1.13-.86-1.86-2.06-1.86-3.85,0-2.33,1.59-4.32,4.84-5.64v-.53c-4.05-1.93-6.5-4.98-6.5-9.03,0-2.99,1.13-5.51,3.38-7.43,2.26-1.93,5.11-2.92,8.63-2.92,1.92,0,3.92.46,5.84,1.06h11.15v3.05h-7.5v.2c1.59,1.86,2.39,4.25,2.39,6.44,0,2.79-1.13,5.18-3.45,7.1-2.26,1.92-4.91,2.92-7.96,2.92h-3.91c-1,.33-2.33,1.19-2.33,2.79s1,2.39,2.33,2.65c1.26.33,2.92.4,4.78.46.93,0,2.19.07,3.85.2,1.66.06,2.85.13,3.52.2,2.06.07,4.11.93,5.77,2.46,1.66,1.66,2.79,3.65,2.79,6.64ZM278.5,322.1c-1.13-.2-5.24-.46-10.22-.46-4.71.86-6.5,2.99-6.5,6.37,0,1.53.6,2.99,2.19,4.11,1.53,1.13,4.05,1.93,7.7,1.93,6.37,0,10.29-2.39,10.29-7.43,0-2.39-1.13-3.98-3.45-4.51ZM269.87,291.57c-2.06,0-3.52.86-4.38,2.39-.86,1.39-1.2,3.58-1.2,5.71,0,4.78,2.26,8.1,5.64,8.1,3.72,0,5.77-3.38,5.77-7.9,0-5.11-2.12-8.3-5.84-8.3Z"></path><path class="cls-1" d="M316.52,317.98c-2.92,3.45-6.9,5.11-11.75,5.11-4.05,0-7.83-1.59-10.69-4.51-2.85-2.92-4.65-7.1-4.65-12.34s1.46-9.09,4.38-12.21c2.92-3.19,6.7-4.78,11.41-4.78,4.45,0,8.16,1.53,11.02,4.51,2.92,2.99,4.38,7.04,4.38,12.01,0,4.51-1.46,9.09-4.11,12.21ZM312.01,296.15c-1.39-2.65-3.58-4.45-6.84-4.45s-5.71,1.73-7.1,4.58c-1.39,2.65-1.93,6.24-1.93,9.43,0,4.18.6,7.63,2.12,10.48,1.53,2.72,3.65,4.45,6.9,4.45,5.38,0,8.76-5.57,8.76-14.8,0-3.19-.6-7.23-1.92-9.69Z"></path><path class="cls-1" d="M371.2,292.23c-1.79.2-4.18,1.46-5.18,4.12-2.19,6.37-3.91,11.55-6.3,18.65-.8,2.19-1.66,4.98-2.26,7.3h-2.79l-8.56-23.5-8.7,23.5h-2.66c-1.59-4.78-3.19-9.49-4.71-14.2-1.53-4.71-2.92-8.83-4.12-12.35-.73-2.06-2.99-3.25-4.78-3.45v-2.12h14.2v2.26c-1.39,0-3.52.4-3.52,1.39,0,.2.13.86.4,1.46,1.33,4.51,2.99,9.56,5.71,18.52l8.16-23.03h3.12l8.3,22.7c1.86-5.78,3.85-11.29,5.24-16.06.27-1.06.6-1.92.6-2.92,0-.73-.73-1.4-1.79-1.73-.8-.33-1.99-.53-2.52-.53v-2.06h12.15v2.06Z"></path><path class="cls-1" d="M393.69,316.86c-3.78-4.05-6.3-9.96-6.3-17.32s2.39-13.41,6.37-17.72c3.92-4.25,9.42-6.7,15.53-6.7,4.51,0,8.03,1.13,11.42,3.18l1.33-2.19h2.59l.33,16.39h-2.72c-.6-3.19-2.12-7.3-3.98-9.96-2.06-2.92-4.84-4.71-8.56-4.71-4.18,0-7.9,1.86-10.56,5.58-2.46,3.45-3.98,9.03-3.98,15.66,0,5.91,1.46,10.89,4.31,14.6,2.72,3.65,6.51,5.84,11.22,5.84,3.52,0,6.5-1.2,8.69-2.99,2.12-1.93,3.78-4.38,4.85-7.24l2.39,1.2c-3.71,9.1-9.82,12.68-18.32,12.68-5.51,0-10.69-2.26-14.6-6.3Z"></path><path class="cls-1" d="M459.39,321.5c-2.06.8-3.32,1.26-5.24,1.26-3.39,0-5.44-1.66-5.97-4.65h-.2c-2.85,3.12-5.84,4.78-10.35,4.78-4.78,0-8.23-3.19-8.23-7.96,0-2.46.73-4.38,2.06-5.91,1.13-1.33,3.12-2.39,4.64-2.98,1-.33,2.92-1,5.91-1.99,2.99-1,4.98-1.79,6.04-2.39v-3.19c0-.53-.2-2.39-.93-3.91-.86-1.59-2.32-2.92-5.18-2.92-2.06,0-3.85.8-4.58,1.53,0,.86.6,2.85.6,4.25,0,1.53-1.46,2.99-3.85,2.99-2.19,0-3.18-1.79-3.18-3.72s1.53-3.85,3.85-5.24c1.92-1.26,4.91-2.19,7.56-2.19,3.65,0,6.24.33,8.43,1.99,2.19,1.59,3.39,4.25,3.39,8.56,0,6.11-.2,10.35-.2,16,0,1.66.53,2.59,1.79,3.32.6.33,2.26.33,3.65.33v2.06ZM448.11,304.38c-3.72,1.13-6.31,1.99-8.69,3.58-2.12,1.39-3.52,3.45-3.52,6.17,0,3.52,2.12,5.18,4.98,5.18,3.12,0,5.44-1.66,7.04-3.72l.2-11.22Z"></path><path class="cls-1" d="M509.63,314.6c-2.66,5.04-7.3,8.36-13.14,8.36-5.11,0-8.96-1.92-11.55-5.04-2.46-3.18-3.72-7.37-3.72-12.08,0-4.18,1.33-8.29,3.92-11.48,2.46-3.12,6.17-5.11,10.69-5.11s7.97,1.53,10.09,4.11c1.93,2.39,2.92,5.71,2.92,9.62v2.12h-21.17c0,4.25.73,7.63,2.52,10.22,1.66,2.45,4.38,4.05,8.16,4.05s6.37-1.59,9.03-6.17l2.26,1.39ZM502.46,302.39c0-2.39-.33-5.51-1.33-7.37-1-1.93-2.66-3.32-5.38-3.32-4.51,0-7.83,3.98-8.1,10.69h14.8Z"></path><path class="cls-1" d="M547.59,321.5l-11.08.73-.53-.47v-2.98l-.27-.07c-2.19,2.59-5.78,4.31-9.22,4.31-3.65,0-7.23-1.72-9.69-4.65-2.59-2.99-4.18-7.3-4.18-12.34,0-4.58,1.66-8.89,4.51-12.01,2.66-2.92,6.7-4.78,10.69-4.78,2.99,0,6.04.8,8.1,2.06v-7.96c0-1.79-.6-3.38-1.73-4.18-1.13-.8-3.38-1.06-5.77-1.26v-2.06l13.07-.73.53.46v39.95c0,1.53.6,2.52,1.66,3.25.86.53,2.66.6,3.92.6v2.12ZM535.9,297.21c-.33-1.13-1.13-2.52-2.26-3.59-1.32-1.06-2.98-1.92-5.18-1.92-2.59,0-4.85,1.46-6.51,3.92-1.59,2.39-2.59,6.31-2.59,10.82,0,3.65.67,6.51,2.26,9.09,1.53,2.39,3.92,3.98,7.1,3.98,3.45,0,5.64-1.79,7.17-3.58v-18.72Z"></path><path class="cls-1" d="M575.39,317.98c-2.92,3.45-6.9,5.11-11.75,5.11-4.05,0-7.83-1.59-10.69-4.51-2.86-2.92-4.65-7.1-4.65-12.34s1.46-9.09,4.38-12.21c2.92-3.19,6.7-4.78,11.42-4.78,4.45,0,8.16,1.53,11.02,4.51,2.92,2.99,4.38,7.04,4.38,12.01,0,4.51-1.46,9.09-4.12,12.21ZM570.87,296.15c-1.39-2.65-3.58-4.45-6.84-4.45s-5.71,1.73-7.1,4.58c-1.39,2.65-1.92,6.24-1.92,9.43,0,4.18.6,7.63,2.12,10.48,1.53,2.72,3.65,4.45,6.9,4.45,5.38,0,8.76-5.57,8.76-14.8,0-3.19-.6-7.23-1.93-9.69Z"></path><path class="cls-1" d="M617.13,322.1h-15.66v-2.12c1-.07,2.32-.13,3.12-.4,1.26-.33,1.79-1.33,1.79-2.92v-16.46c0-4.51-2.52-7.11-5.51-7.11-2.32,0-4.18.87-5.71,1.86-1.39,1.06-2.26,2.26-2.59,2.99v18.39c0,1.53.53,2.39,1.79,2.92.86.46,1.99.66,3.12.73v2.12h-15.66v-2.12c.99-.07,2.12-.13,2.92-.4,1.26-.33,1.79-1.33,1.79-2.92v-19.71c0-1.53-.66-2.79-1.79-3.59-.8-.46-1.99-.73-3.25-.79v-2.12l10.62-.66.46.46v4.45h.13c1.06-.99,2.79-2.72,4.18-3.58,1.59-1.06,3.85-1.86,6.57-1.86,6.11,0,9.03,4.18,9.03,10.55v16.59c0,1.53.46,2.39,1.72,2.92,1.06.46,1.59.6,2.92.66v2.12Z"></path><path class="cls-1" d="M635.9,322.1h-15.46v-2.12c1-.07,2.12-.13,2.92-.4,1.26-.33,1.79-1.33,1.79-2.92v-19.71c0-1.39-.66-2.59-1.79-3.38-.8-.53-2.59-.93-3.92-1v-2.12l11.29-.66.46.46v26.02c0,1.53.53,2.52,1.79,2.99,1,.33,1.79.66,2.92.73v2.12ZM627.61,283.87c-2.19,0-4.05-1.99-4.05-4.31s1.86-4.45,4.05-4.45c2.45,0,4.25,1.99,4.25,4.18,0,2.46-1.86,4.58-4.25,4.58Z"></path><path class="cls-1" d="M231.12,384.41h-15.47v-2.12c1-.07,2.12-.13,2.92-.4,1.26-.33,1.79-1.33,1.79-2.92v-19.71c0-1.4-.66-2.59-1.79-3.38-.8-.53-2.59-.93-3.92-1v-2.12l11.28-.66.46.46v26.02c0,1.53.53,2.52,1.79,2.99,1,.33,1.79.66,2.92.73v2.12ZM222.82,346.18c-2.19,0-4.05-1.99-4.05-4.32s1.86-4.45,4.05-4.45c2.45,0,4.25,1.99,4.25,4.18,0,2.45-1.86,4.58-4.25,4.58Z"></path><path class="cls-1" d="M365.82,384.41h-15.47v-2.12c1-.07,2.12-.13,2.92-.4,1.26-.33,1.79-1.33,1.79-2.92v-19.71c0-1.4-.66-2.59-1.79-3.38-.8-.53-2.59-.93-3.92-1v-2.12l11.28-.66.46.46v26.02c0,1.53.53,2.52,1.79,2.99,1,.33,1.79.66,2.92.73v2.12ZM357.53,346.18c-2.19,0-4.05-1.99-4.05-4.32s1.86-4.45,4.05-4.45c2.45,0,4.25,1.99,4.25,4.18,0,2.46-1.86,4.58-4.25,4.58Z"></path><path class="cls-1" d="M669.42,321.5c-2.06.8-3.32,1.26-5.24,1.26-3.38,0-5.44-1.66-5.97-4.65h-.2c-2.85,3.12-5.84,4.78-10.35,4.78-4.78,0-8.23-3.19-8.23-7.96,0-2.46.73-4.38,2.06-5.91,1.12-1.33,3.12-2.39,4.64-2.98.99-.33,2.92-1,5.91-1.99,2.99-1,4.98-1.79,6.04-2.39v-3.19c0-.53-.2-2.39-.93-3.91-.86-1.59-2.32-2.92-5.18-2.92-2.06,0-3.85.8-4.58,1.53,0,.86.6,2.85.6,4.25,0,1.53-1.46,2.99-3.85,2.99-2.19,0-3.19-1.79-3.19-3.72s1.53-3.85,3.85-5.24c1.93-1.26,4.91-2.19,7.56-2.19,3.65,0,6.24.33,8.43,1.99,2.19,1.59,3.38,4.25,3.38,8.56,0,6.11-.2,10.35-.2,16,0,1.66.53,2.59,1.79,3.32.6.33,2.26.33,3.65.33v2.06ZM658.14,304.38c-3.72,1.13-6.31,1.99-8.7,3.58-2.12,1.39-3.52,3.45-3.52,6.17,0,3.52,2.12,5.18,4.98,5.18,3.12,0,5.44-1.66,7.04-3.72l.2-11.22Z"></path><path class="cls-1" d="M707.25,322.1h-15.66v-2.12c.99-.07,2.32-.13,3.12-.4,1.26-.33,1.79-1.33,1.79-2.92v-16.46c0-4.51-2.52-7.11-5.51-7.11-2.32,0-4.18.87-5.71,1.86-1.39,1.06-2.26,2.26-2.59,2.99v18.39c0,1.53.53,2.39,1.79,2.92.86.46,1.99.66,3.12.73v2.12h-15.66v-2.12c.99-.07,2.12-.13,2.92-.4,1.26-.33,1.79-1.33,1.79-2.92v-19.71c0-1.53-.67-2.79-1.79-3.59-.8-.46-1.99-.73-3.25-.79v-2.12l10.62-.66.46.46v4.45h.13c1.06-.99,2.79-2.72,4.18-3.58,1.59-1.06,3.85-1.86,6.57-1.86,6.11,0,9.03,4.18,9.03,10.55v16.59c0,1.53.46,2.39,1.72,2.92,1.06.46,1.59.6,2.92.66v2.12Z"></path><g><path class="cls-1" d="M177.9,340.73c-1.26,0-4.12.46-5.51,1.46-1.53,1-1.99,4.25-1.99,8.76v19.98c0,5.11-2.32,8.89-5.77,11.28-3.39,2.39-7.37,3.32-10.82,3.32-5.51,0-9.89-1.59-12.81-4.05-2.92-2.46-4.38-5.77-4.38-9.23v-27.15c0-1.53-.33-2.46-1.86-3.32-1.13-.6-3.12-1-4.18-1.06v-2.32h19.18v2.32c-1.26,0-3.45.46-4.31.8-1.53.46-1.86,1.86-1.86,3.25v25.42c0,2.39.4,5.31,1.99,7.63,1.66,2.39,4.38,4.05,9.42,4.05,4.78,0,7.9-1.66,9.76-4.12,1.79-2.32,2.46-4.91,2.46-7.5v-18.92c0-4.78-.73-7.96-2.06-8.83-.73-.6-1.79-1-3.12-1.26-1.26-.33-2.26-.47-2.99-.53v-2.32h18.85v2.32Z"></path><path class="cls-1" d="M212.34,384.41h-15.66v-2.12c1-.07,2.32-.13,3.12-.4,1.26-.33,1.79-1.33,1.79-2.92v-16.46c0-4.51-2.52-7.1-5.51-7.1-2.32,0-4.18.86-5.71,1.86-1.39,1.06-2.26,2.26-2.59,2.99v18.39c0,1.53.53,2.39,1.79,2.92.86.46,1.99.66,3.12.73v2.12h-15.66v-2.12c1-.07,2.12-.13,2.92-.4,1.26-.33,1.79-1.33,1.79-2.92v-19.71c0-1.53-.66-2.79-1.79-3.58-.79-.46-1.99-.73-3.25-.8v-2.12l10.62-.66.46.46v4.45h.13c1.06-.99,2.79-2.72,4.18-3.58,1.59-1.06,3.85-1.86,6.57-1.86,6.11,0,9.03,4.18,9.03,10.55v16.59c0,1.53.47,2.39,1.73,2.92,1.06.46,1.59.59,2.92.66v2.12Z"></path><path class="cls-1" d="M264.3,354.41c-1.92.33-3.78,1.2-5.04,3.85-2.59,5.84-5.24,12.08-8.17,18.98-.86,2.06-1.92,4.98-2.72,7.44h-2.59c-4.05-10.09-7.3-17.92-11.02-26.68-.86-2.06-3.05-3.12-4.98-3.39v-2.12h14.73v2.26c-.6,0-1.39.13-2.39.4-1,.2-1.46.53-1.46,1,0,.2.27.73.46,1.46.86,2.19,2.12,5.31,3.72,9.22,1.66,3.92,2.99,7.11,3.98,9.56,1.59-3.72,4.05-9.36,6.77-16.2.46-1.13.93-2.12.93-3.19,0-.73-.86-1.39-1.86-1.72-1-.46-2.06-.66-2.59-.73v-2.06h12.21v1.93Z"></path><path class="cls-1" d="M292.77,376.91c-2.65,5.04-7.3,8.37-13.14,8.37-5.11,0-8.96-1.93-11.55-5.04-2.46-3.19-3.72-7.37-3.72-12.08,0-4.18,1.33-8.29,3.91-11.48,2.46-3.12,6.17-5.11,10.69-5.11s7.96,1.53,10.09,4.12c1.92,2.39,2.92,5.71,2.92,9.62v2.12h-21.17c0,4.25.73,7.63,2.52,10.22,1.66,2.46,4.38,4.05,8.16,4.05s6.37-1.59,9.03-6.17l2.25,1.39ZM285.6,364.69c0-2.39-.33-5.51-1.33-7.37-1-1.92-2.66-3.32-5.38-3.32-4.51,0-7.83,3.98-8.1,10.68h14.8Z"></path><path class="cls-1" d="M316.92,360.78c-2.39,0-3.72-1.46-3.72-2.99,0-.99.13-1.72.33-2.46-2.06,0-5.18,1.72-7.04,4.71v18.58c0,1.53.53,2.46,1.79,2.92,1.06.46,3.05.66,4.31.73v2.12h-16.86v-2.12c1-.07,2.12-.13,2.92-.4,1.26-.33,1.79-1.33,1.79-2.92v-19.71c0-1.39-.67-2.79-1.79-3.58-.8-.46-1.99-.73-3.25-.8v-2.12l10.62-.66.46.46v4.45h.13c2.65-3.45,6.3-5.31,8.96-5.31s4.65,1.93,4.65,4.91c0,2.12-1.13,4.18-3.32,4.18Z"></path><path class="cls-1" d="M346.18,375.18c0,2.99-1.13,5.38-3.39,7.3-2.19,1.86-5.04,2.79-8.56,2.79-3.72,0-7.17-1.79-8.5-2.86l-.66,2.06h-2.39l-.33-11.08h2.19c.33,1.66,1.59,4.18,3.19,5.97,1.66,1.93,4.05,3.38,6.97,3.38,4.18,0,6.51-1.92,6.51-5.44,0-1.79-.73-3.05-2.12-4.05-1.39-1.06-3.52-1.79-6.11-2.59-2.06-.53-4.78-1.66-6.57-3.05-1.86-1.59-3.25-3.72-3.25-6.7,0-2.59,1-4.85,2.92-6.64,1.92-1.79,4.58-2.72,7.83-2.72,2.46,0,5.38.8,7.03,1.66l.73-1.73h2.32l.53,10.29h-2.25c-.86-4.58-4.12-7.76-8.43-7.76-3.52,0-5.71,2.12-5.71,4.58,0,1.92.66,3.19,1.99,4.05,1.33.86,3.19,1.53,6.11,2.52,2.86.86,5.51,2.19,7.17,3.58,1.79,1.59,2.79,3.52,2.79,6.44Z"></path><path class="cls-1" d="M387.19,383.01c-2.85,1.13-4.98,2.06-8.63,2.06-5.31,0-7.3-2.86-7.3-7.7v-21.71h-5.77v-3.05h5.91v-9.96h5.91v9.96h9.16v3.05h-9.09v17.85c0,2.72.07,4.38.86,5.71.73,1.33,1.99,1.92,4.32,1.92,1.06,0,3.78-.2,4.64-.53v2.39Z"></path><path class="cls-1" d="M392.63,391.17c1.39,0,2.32.6,3.12,1.4.73.6,1.46,1.99,1.92,2.72,1.13-.6,2.39-2.12,3.85-4.58,1.53-2.45,2.59-4.58,3.32-6.44-2.06-5.11-3.98-9.69-5.64-13.74-1.66-4.05-3.38-8.23-5.18-12.54-.8-2.06-3.05-3.12-4.98-3.39v-2.12h14.54v2.26c-.6,0-1.39.13-2.33.4-.86.2-1.33.53-1.33.86,0,.27.2.86.47,1.59.86,2.12,2.12,5.18,3.78,9.22,1.66,4.05,2.99,7.24,3.92,9.69,1.93-4.58,3.92-9.23,6.51-15.93.33-.87,1.13-2.52,1.13-3.59,0-.6-.53-1.13-1.53-1.59-1-.46-1.93-.8-2.79-.86v-2.06h11.88v1.99c-1.33.2-3.92,1.46-4.91,3.78-2.59,5.97-4.85,11.42-6.9,16.33-1.99,4.91-3.52,8.5-4.51,10.82-2.72,6.04-4.71,9.16-6.77,11.08-2.06,1.86-3.45,2.32-5.24,2.32-3.38,0-5.38-1.86-5.38-3.98s1.26-3.65,3.05-3.65Z"></path></g><g><path class="cls-2" d="M172.9,495.67c-.48.02-1.19.12-2.12.31-.93.19-1.69.47-2.28.85-.59.4-.99,1.22-1.22,2.46-.22,1.24-.34,2.76-.34,4.55v15.95c0,2.03-.42,3.8-1.27,5.3-.84,1.5-1.96,2.73-3.34,3.7-1.36.93-2.8,1.6-4.31,2-1.51.41-2.95.61-4.33.61-2.21,0-4.17-.29-5.9-.87-1.72-.58-3.17-1.36-4.34-2.34-1.16-.98-2.03-2.11-2.61-3.38-.59-1.27-.88-2.59-.88-3.97v-21.7c0-.6-.1-1.11-.3-1.51-.2-.4-.6-.78-1.2-1.12-.43-.24-.98-.44-1.65-.58s-1.22-.24-1.65-.27v-1.84h15.28v1.84c-.48.02-1.09.09-1.82.23-.73.14-1.27.27-1.62.39-.59.21-.98.55-1.18,1.03-.2.48-.3,1.01-.3,1.58v20.26c0,.98.11,2.01.32,3.09.22,1.08.64,2.08,1.28,3.01.67.95,1.59,1.72,2.74,2.33,1.15.6,2.74.9,4.76.9,1.9,0,3.49-.3,4.77-.9,1.28-.6,2.3-1.39,3.04-2.38.71-.93,1.21-1.9,1.5-2.92.29-1.02.44-2.04.44-3.07v-15.04c0-1.91-.14-3.47-.41-4.69-.28-1.21-.68-2.01-1.22-2.39-.6-.43-1.43-.77-2.47-1.01-1.04-.24-1.84-.38-2.39-.41v-1.84h15v1.84Z"></path><path class="cls-2" d="M203.33,530.53h-12.46v-1.71c.4-.03.83-.07,1.31-.1.47-.03.87-.1,1.18-.21.48-.16.84-.43,1.07-.81.23-.39.35-.89.35-1.51v-13.11c0-1.81-.43-3.21-1.28-4.19-.86-.98-1.9-1.47-3.12-1.47-.92,0-1.75.14-2.51.43-.76.28-1.43.63-2.02,1.05-.57.4-1.02.82-1.36,1.28-.34.46-.58.82-.74,1.1v14.66c0,.59.12,1.07.36,1.45.24.38.6.67,1.09.88.36.17.75.3,1.18.39.42.09.86.15,1.31.18v1.71h-12.49v-1.71c.4-.03.81-.07,1.23-.1.42-.03.79-.1,1.1-.21.48-.15.84-.43,1.07-.81.23-.39.35-.89.35-1.51v-15.73c0-.58-.13-1.12-.38-1.61-.25-.49-.6-.89-1.05-1.2-.33-.21-.72-.36-1.16-.45s-.93-.16-1.45-.19v-1.71l8.48-.57.36.36v3.59h.13c.41-.41.93-.91,1.55-1.49.62-.58,1.21-1.05,1.76-1.41.64-.41,1.4-.76,2.28-1.03.88-.28,1.87-.41,2.97-.41,2.45,0,4.26.76,5.44,2.29,1.18,1.53,1.77,3.56,1.77,6.09v13.27c0,.6.1,1.09.31,1.46.21.37.56.66,1.06.87.41.17.77.29,1.07.36.3.07.72.12,1.25.15v1.71Z"></path><path class="cls-2" d="M218.82,530.53h-12.31v-1.71c.4-.03.81-.07,1.23-.1.42-.03.79-.1,1.1-.21.48-.15.84-.43,1.07-.81.23-.39.35-.89.35-1.51v-15.73c0-.55-.13-1.05-.38-1.51-.25-.46-.6-.84-1.05-1.15-.33-.21-.8-.38-1.42-.53-.62-.15-1.19-.24-1.71-.27v-1.71l9-.57.36.36v20.79c0,.6.12,1.1.35,1.5.23.4.59.69,1.09.88.38.16.74.28,1.1.38.36.09.76.16,1.21.19v1.71ZM215.59,494.66c0,.98-.32,1.84-.97,2.57s-1.44,1.1-2.39,1.1c-.88,0-1.64-.35-2.29-1.05s-.97-1.5-.97-2.39c0-.95.32-1.77.97-2.48.65-.71,1.41-1.06,2.29-1.06.98,0,1.79.33,2.42,1,.63.66.94,1.44.94,2.31Z"></path><path class="cls-2" d="M247.16,506.61c-.78.14-1.51.42-2.21.84-.7.42-1.3,1.17-1.8,2.24-1.02,2.31-2.07,4.72-3.15,7.23s-2.22,5.14-3.39,7.9c-.35.79-.71,1.73-1.1,2.82s-.75,2.13-1.07,3.13h-2.02c-1.64-4.05-3.15-7.74-4.53-11.08-1.38-3.34-2.81-6.75-4.29-10.25-.34-.79-.9-1.41-1.67-1.85s-1.54-.72-2.31-.84v-1.71h11.8v1.81c-.52.02-1.16.12-1.94.32s-1.16.47-1.16.81c0,.05.04.18.13.4.09.21.17.46.26.74.7,1.76,1.7,4.21,2.99,7.36,1.29,3.15,2.34,5.69,3.15,7.62.62-1.48,1.4-3.32,2.34-5.53.94-2.21,1.95-4.67,3.04-7.39.17-.46.34-.9.49-1.3.16-.4.23-.81.23-1.23,0-.29-.14-.56-.43-.79-.28-.23-.62-.43-1.02-.61-.4-.17-.78-.3-1.16-.39-.38-.09-.69-.15-.93-.18v-1.66h9.76v1.58Z"></path><path class="cls-2" d="M270.93,524.53c-1.07,2.03-2.5,3.66-4.29,4.86-1.79,1.21-3.85,1.81-6.18,1.81-2.05,0-3.85-.36-5.39-1.09-1.54-.72-2.81-1.71-3.81-2.95-1-1.24-1.75-2.69-2.24-4.34-.49-1.65-.74-3.4-.74-5.25,0-1.65.26-3.28.79-4.87s1.3-3.03,2.31-4.31c.98-1.22,2.2-2.21,3.66-2.96,1.46-.75,3.09-1.12,4.9-1.12s3.46.29,4.78.88c1.33.59,2.4,1.39,3.23,2.4.79.97,1.38,2.1,1.77,3.41.39,1.31.58,2.73.58,4.27v1.71h-16.89c0,1.68.16,3.2.48,4.56.32,1.37.82,2.57,1.51,3.6.67,1,1.55,1.79,2.64,2.37,1.09.58,2.38.87,3.88.87s2.86-.36,3.97-1.08c1.11-.72,2.19-2.01,3.22-3.89l1.81,1.11ZM265.21,514.8c0-.96-.08-1.99-.25-3.09-.16-1.1-.43-2.02-.79-2.76-.4-.79-.94-1.44-1.63-1.93-.69-.5-1.58-.75-2.66-.75-1.81,0-3.31.75-4.51,2.26-1.2,1.5-1.85,3.6-1.95,6.28h11.79Z"></path><path class="cls-2" d="M293.4,508.31c0,.88-.22,1.66-.65,2.34-.43.68-1.1,1.02-1.99,1.02-.97,0-1.7-.25-2.21-.75-.51-.5-.76-1.05-.76-1.65,0-.38.03-.72.09-1.04.06-.31.12-.62.17-.93-.81,0-1.76.33-2.84.98-1.09.66-2.01,1.59-2.77,2.79v14.84c0,.6.12,1.09.35,1.47.23.38.6.66,1.1.85.43.17.99.3,1.67.39.68.09,1.27.15,1.77.18v1.71h-13.45v-1.71c.4-.03.81-.07,1.23-.1.42-.03.79-.1,1.1-.21.48-.15.84-.43,1.07-.81.23-.39.35-.89.35-1.51v-15.73c0-.53-.13-1.06-.38-1.58-.25-.52-.6-.93-1.05-1.24-.33-.21-.72-.36-1.16-.45s-.93-.16-1.45-.19v-1.71l8.48-.57.36.36v3.59h.13c1.07-1.4,2.26-2.46,3.57-3.18,1.31-.72,2.51-1.09,3.59-1.09s1.97.35,2.65,1.06c.68.71,1.02,1.66,1.02,2.84Z"></path><path class="cls-2" d="M312.4,518.04c.71.62,1.25,1.34,1.63,2.15.38.81.57,1.8.57,2.97,0,2.36-.88,4.29-2.65,5.79s-4.06,2.25-6.87,2.25c-1.48,0-2.85-.27-4.1-.8s-2.14-1.03-2.68-1.47l-.52,1.68h-1.94l-.26-8.87h1.78c.14.67.43,1.46.88,2.36.45.9.99,1.71,1.63,2.44.67.76,1.48,1.4,2.42,1.92s2,.78,3.17.78c1.65,0,2.93-.38,3.83-1.13.9-.75,1.34-1.83,1.34-3.24,0-.72-.14-1.35-.43-1.88-.28-.53-.7-.99-1.25-1.38-.57-.4-1.27-.75-2.09-1.07-.83-.32-1.75-.63-2.77-.94-.81-.24-1.71-.57-2.7-1-.99-.42-1.84-.92-2.55-1.49-.76-.6-1.38-1.34-1.86-2.22-.48-.88-.72-1.91-.72-3.1,0-2.09.78-3.85,2.33-5.3,1.55-1.45,3.63-2.17,6.23-2.17,1,0,2.02.13,3.06.39s1.89.57,2.55.93l.59-1.34h1.86l.39,8.2h-1.78c-.36-1.83-1.14-3.33-2.34-4.48-1.2-1.15-2.66-1.73-4.38-1.73-1.41,0-2.53.36-3.34,1.07-.81.71-1.22,1.57-1.22,2.58,0,.78.13,1.42.4,1.94.27.52.67.96,1.2,1.32.52.34,1.17.67,1.95.97.78.3,1.75.64,2.91,1.02,1.14.36,2.21.78,3.22,1.27,1.01.48,1.84,1.02,2.5,1.6Z"></path><path class="cls-2" d="M330.81,530.53h-12.31v-1.71c.4-.03.81-.07,1.23-.1.42-.03.79-.1,1.1-.21.48-.15.84-.43,1.07-.81.23-.39.35-.89.35-1.51v-15.73c0-.55-.13-1.05-.38-1.51-.25-.46-.6-.84-1.05-1.15-.33-.21-.8-.38-1.42-.53-.62-.15-1.19-.24-1.71-.27v-1.71l9-.57.36.36v20.79c0,.6.12,1.1.35,1.5.23.4.59.69,1.09.88.38.16.74.28,1.1.38.36.09.76.16,1.21.19v1.71ZM327.58,494.66c0,.98-.32,1.84-.97,2.57s-1.44,1.1-2.39,1.1c-.88,0-1.64-.35-2.29-1.05s-.97-1.5-.97-2.39c0-.95.32-1.77.97-2.48.65-.71,1.41-1.06,2.29-1.06.98,0,1.79.33,2.42,1,.63.66.94,1.44.94,2.31Z"></path><path class="cls-2" d="M349.72,529.41c-1.12.47-2.18.86-3.18,1.18-1,.32-2.22.48-3.67.48-2.14,0-3.64-.54-4.51-1.62s-1.31-2.6-1.31-4.56v-17.27h-4.6v-2.48h4.71v-7.94h4.71v7.94h7.32v2.48h-7.27v14.25c0,1.07.04,1.96.12,2.68.08.72.26,1.34.56,1.88.28.5.69.88,1.24,1.14.55.26,1.29.39,2.22.39.43,0,1.06-.04,1.9-.12s1.43-.18,1.77-.3v1.89Z"></path><path class="cls-2" d="M350.31,538.85c0-.86.24-1.56.71-2.11.47-.54,1.06-.81,1.77-.81.55,0,1.02.1,1.42.31.4.21.75.47,1.06.8.26.26.53.61.83,1.05.29.44.53.81.7,1.1.86-.46,1.89-1.68,3.09-3.64,1.2-1.96,2.06-3.68,2.6-5.16-1.64-4.08-3.12-7.74-4.45-10.96-1.33-3.22-2.71-6.56-4.16-10-.33-.79-.88-1.41-1.65-1.85s-1.55-.72-2.33-.84v-1.71h11.64v1.81c-.52.02-1.14.12-1.86.32-.72.2-1.09.43-1.09.68,0,.1.04.28.12.52s.17.49.27.75c.65,1.71,1.65,4.16,2.99,7.38,1.34,3.21,2.38,5.78,3.12,7.71.78-1.84,1.58-3.75,2.42-5.72.84-1.97,1.77-4.3,2.81-6.99.12-.33.29-.78.52-1.36s.34-1.07.34-1.49c0-.45-.39-.87-1.18-1.25-.78-.39-1.53-.62-2.24-.71v-1.66h9.47v1.6c-.52.09-1.2.38-2.04.89-.84.51-1.47,1.23-1.89,2.16-2.05,4.76-3.87,9.09-5.47,13.01-1.59,3.91-2.81,6.79-3.63,8.64-1.09,2.41-2.06,4.3-2.91,5.65-.85,1.35-1.69,2.42-2.5,3.19-.79.72-1.51,1.21-2.16,1.46-.65.25-1.31.38-2,.38-1.34,0-2.4-.32-3.17-.96-.77-.64-1.15-1.37-1.15-2.2Z"></path><path class="cls-2" d="M410.07,493.6c0,.78-.21,1.43-.62,1.97-.41.53-1.04.8-1.89.8-.53,0-1-.11-1.41-.34-.41-.22-.78-.53-1.12-.9-.35-.38-.66-.81-.96-1.29s-.54-.87-.75-1.16c-1.16.05-2.05.86-2.68,2.41-.63,1.56-.94,4.04-.94,7.44v2.61h6.57v2.48h-6.57v18.31c0,.6.12,1.09.35,1.47.23.38.6.66,1.1.85.41.16.97.28,1.66.38.69.09,1.28.16,1.78.19v1.71h-13.45v-1.71c.4-.03.81-.07,1.23-.1.42-.03.79-.1,1.1-.21.48-.16.84-.43,1.07-.81.23-.39.35-.89.35-1.51v-18.57h-5.04v-2.48h5.04v-1.63c0-3.87,1-7.01,3.01-9.41,2.01-2.4,4.52-3.6,7.54-3.6,1.53,0,2.69.3,3.46.91.78.6,1.16,1.34,1.16,2.2Z"></path><path class="cls-2" d="M433.19,517.52c0,1.79-.29,3.56-.85,5.29-.57,1.73-1.38,3.2-2.43,4.41-1.19,1.38-2.57,2.4-4.14,3.08-1.57.67-3.33,1.01-5.28,1.01-1.62,0-3.17-.31-4.63-.92-1.47-.61-2.77-1.5-3.91-2.68-1.12-1.16-2.01-2.56-2.68-4.23-.66-1.66-1-3.53-1-5.6,0-3.98,1.16-7.24,3.48-9.77,2.32-2.53,5.36-3.8,9.12-3.8s6.52,1.2,8.84,3.61c2.32,2.41,3.48,5.61,3.48,9.61ZM427.83,517.57c0-1.29-.13-2.66-.39-4.1-.26-1.44-.65-2.66-1.17-3.66-.55-1.07-1.28-1.93-2.18-2.57-.9-.65-1.99-.97-3.29-.97s-2.47.33-3.41.98c-.94.66-1.71,1.55-2.29,2.69-.55,1.05-.94,2.25-1.17,3.59-.22,1.34-.34,2.65-.34,3.9,0,1.65.13,3.18.4,4.59.27,1.41.69,2.66,1.28,3.76.59,1.1,1.33,1.97,2.21,2.6.89.63,1.99.94,3.3.94,2.16,0,3.87-1.04,5.13-3.13,1.26-2.09,1.89-4.96,1.89-8.64Z"></path><path class="cls-2" d="M456.38,508.31c0,.88-.22,1.66-.65,2.34-.43.68-1.09,1.02-1.99,1.02-.97,0-1.7-.25-2.21-.75-.51-.5-.76-1.05-.76-1.65,0-.38.03-.72.09-1.04.06-.31.12-.62.17-.93-.81,0-1.76.33-2.84.98-1.09.66-2.01,1.59-2.77,2.79v14.84c0,.6.12,1.09.35,1.47.23.38.6.66,1.1.85.43.17.99.3,1.67.39.68.09,1.27.15,1.77.18v1.71h-13.45v-1.71c.4-.03.81-.07,1.23-.1.42-.03.79-.1,1.1-.21.48-.15.84-.43,1.07-.81.23-.39.35-.89.35-1.51v-15.73c0-.53-.13-1.06-.38-1.58-.25-.52-.6-.93-1.05-1.24-.33-.21-.72-.36-1.16-.45s-.93-.16-1.45-.19v-1.71l8.48-.57.36.36v3.59h.13c1.07-1.4,2.26-2.46,3.57-3.18,1.31-.72,2.51-1.09,3.59-1.09s1.97.35,2.65,1.06c.68.71,1.02,1.66,1.02,2.84Z"></path><path class="cls-2" d="M487.07,529.41c-1.12.47-2.18.86-3.18,1.18-1,.32-2.22.48-3.67.48-2.14,0-3.64-.54-4.51-1.62-.87-1.08-1.31-2.6-1.31-4.56v-17.27h-4.6v-2.48h4.71v-7.94h4.71v7.94h7.32v2.48h-7.27v14.25c0,1.07.04,1.96.12,2.68.08.72.26,1.34.56,1.88.28.5.69.88,1.24,1.14s1.29.39,2.22.39c.43,0,1.06-.04,1.9-.12s1.43-.18,1.77-.3v1.89Z"></path><path class="cls-2" d="M517.35,530.53h-12.54v-1.71c.4-.03.84-.07,1.32-.1.48-.03.88-.1,1.19-.21.48-.16.84-.43,1.07-.81.23-.39.35-.89.35-1.51v-13.11c0-1.81-.43-3.21-1.28-4.19-.86-.98-1.9-1.47-3.12-1.47-.9,0-1.73.14-2.5.43-.77.28-1.46.63-2.06,1.05-.59.43-1.04.86-1.35,1.29-.31.43-.55.79-.73,1.09v14.66c0,.59.12,1.07.35,1.45.23.38.59.67,1.07.88.38.17.77.3,1.18.39.41.09.85.15,1.33.18v1.71h-12.49v-1.71c.39-.03.8-.07,1.23-.12.43-.04.79-.11,1.08-.19.48-.16.84-.43,1.08-.81.24-.39.36-.89.36-1.51v-29.71c0-.59-.13-1.17-.4-1.76-.27-.59-.62-1.03-1.05-1.32-.31-.22-.86-.38-1.64-.48s-1.42-.16-1.9-.19v-1.65l9.44-.57.36.39v17.79h.1c.57-.57,1.09-1.07,1.55-1.51.47-.44,1.08-.9,1.84-1.38.66-.41,1.43-.76,2.32-1.03.89-.28,1.89-.41,2.99-.41,2.28,0,4.03.72,5.26,2.16,1.23,1.44,1.84,3.51,1.84,6.22v13.27c0,.6.11,1.09.33,1.46s.58.66,1.08.87c.4.16.76.27,1.08.35.32.08.74.13,1.26.17v1.71Z"></path><path class="cls-2" d="M543.08,524.53c-1.07,2.03-2.5,3.66-4.29,4.86s-3.85,1.81-6.18,1.81c-2.05,0-3.85-.36-5.39-1.09-1.54-.72-2.81-1.71-3.81-2.95-1-1.24-1.75-2.69-2.24-4.34-.49-1.65-.74-3.4-.74-5.25,0-1.65.26-3.28.79-4.87.53-1.59,1.3-3.03,2.31-4.31.98-1.22,2.2-2.21,3.66-2.96,1.46-.75,3.09-1.12,4.9-1.12s3.46.29,4.78.88c1.33.59,2.4,1.39,3.23,2.4.79.97,1.38,2.1,1.77,3.41.39,1.31.58,2.73.58,4.27v1.71h-16.88c0,1.68.16,3.2.48,4.56.32,1.37.82,2.57,1.51,3.6.67,1,1.55,1.79,2.64,2.37,1.09.58,2.38.87,3.88.87s2.86-.36,3.97-1.08c1.11-.72,2.18-2.01,3.22-3.89l1.81,1.11ZM537.37,514.8c0-.96-.08-1.99-.25-3.09-.16-1.1-.43-2.02-.79-2.76-.4-.79-.94-1.44-1.63-1.93-.69-.5-1.58-.75-2.66-.75-1.81,0-3.31.75-4.51,2.26s-1.85,3.6-1.95,6.28h11.79Z"></path><path class="cls-2" d="M575.62,531.41c-2.19,0-4.29-.43-6.29-1.29-2.01-.86-3.79-2.1-5.33-3.73-1.53-1.62-2.76-3.6-3.67-5.94-.91-2.34-1.37-4.97-1.37-7.9s.45-5.59,1.34-7.98c.9-2.39,2.14-4.45,3.72-6.17,1.57-1.71,3.42-3.03,5.55-3.96s4.42-1.4,6.85-1.4c1.81,0,3.44.22,4.91.67,1.46.45,2.86,1.08,4.19,1.89l1.06-1.76h2.07l.23,13.08h-2.12c-.28-1.28-.69-2.66-1.24-4.15-.55-1.49-1.2-2.75-1.94-3.79-.83-1.17-1.81-2.09-2.94-2.75-1.14-.66-2.44-1-3.9-1-1.67,0-3.22.37-4.66,1.11s-2.68,1.84-3.73,3.29c-1,1.4-1.78,3.17-2.35,5.33-.57,2.16-.85,4.56-.85,7.22,0,2.35.3,4.5.89,6.46.59,1.96,1.44,3.68,2.54,5.16,1.1,1.47,2.41,2.61,3.91,3.44,1.51.83,3.19,1.24,5.05,1.24,1.4,0,2.68-.22,3.85-.66s2.19-1.02,3.05-1.75c.86-.76,1.62-1.62,2.27-2.59.65-.97,1.19-2.02,1.6-3.16l1.94.93c-1.48,3.64-3.44,6.24-5.89,7.8-2.45,1.56-5.36,2.34-8.73,2.34Z"></path><path class="cls-2" d="M617.68,517.52c0,1.79-.29,3.56-.85,5.29s-1.38,3.2-2.43,4.41c-1.19,1.38-2.57,2.4-4.14,3.08-1.57.67-3.33,1.01-5.28,1.01-1.62,0-3.17-.31-4.63-.92-1.47-.61-2.77-1.5-3.91-2.68-1.12-1.16-2.01-2.56-2.68-4.23-.66-1.66-1-3.53-1-5.6,0-3.98,1.16-7.24,3.48-9.77,2.32-2.53,5.36-3.8,9.12-3.8s6.52,1.2,8.84,3.61c2.32,2.41,3.48,5.61,3.48,9.61ZM612.33,517.57c0-1.29-.13-2.66-.39-4.1-.26-1.44-.65-2.66-1.17-3.66-.55-1.07-1.28-1.93-2.18-2.57-.9-.65-2-.97-3.29-.97s-2.47.33-3.41.98c-.94.66-1.71,1.55-2.29,2.69-.55,1.05-.94,2.25-1.17,3.59-.22,1.34-.34,2.65-.34,3.9,0,1.65.13,3.18.4,4.59s.69,2.66,1.28,3.76c.59,1.1,1.33,1.97,2.21,2.6.89.63,1.99.94,3.3.94,2.16,0,3.87-1.04,5.13-3.13s1.89-4.96,1.89-8.64Z"></path><path class="cls-2" d="M664.98,530.53h-12.41v-1.71c.4-.03.8-.07,1.2-.1.41-.03.76-.1,1.07-.21.48-.16.84-.43,1.07-.81.23-.39.35-.89.35-1.51v-13.16c0-1.79-.41-3.18-1.23-4.15-.82-.97-1.84-1.46-3.06-1.46-.84,0-1.64.13-2.38.39s-1.42.62-2.04,1.09c-.5.38-.92.79-1.25,1.23s-.59.81-.76,1.1v14.71c0,.6.1,1.1.31,1.49.21.39.56.69,1.06.89.4.16.75.27,1.07.35.32.08.74.13,1.25.17v1.71h-12.15v-1.71c.4-.03.78-.07,1.15-.1.37-.03.71-.1,1.02-.21.48-.16.84-.43,1.07-.81.23-.39.35-.89.35-1.51v-13.16c0-1.79-.41-3.18-1.23-4.15-.82-.97-1.84-1.46-3.07-1.46-.85,0-1.64.13-2.38.4-.74.27-1.43.63-2.05,1.1-.5.38-.92.81-1.27,1.28-.35.47-.61.83-.78,1.07v14.61c0,.59.12,1.08.36,1.47s.6.7,1.09.91c.36.17.73.3,1.11.39.38.09.8.15,1.27.18v1.71h-12.39v-1.71c.4-.03.81-.07,1.23-.1.42-.03.79-.1,1.1-.21.48-.15.84-.43,1.07-.81s.35-.89.35-1.51v-15.83c0-.55-.12-1.05-.38-1.49s-.6-.81-1.05-1.12c-.33-.21-.73-.37-1.21-.5-.48-.13-.98-.21-1.5-.25v-1.71l8.53-.57.36.36v3.65h.18c.43-.43.96-.94,1.58-1.53.62-.59,1.2-1.06,1.73-1.42.6-.41,1.36-.76,2.26-1.03s1.88-.41,2.93-.41c1.66,0,3.08.44,4.27,1.33s2.04,1.96,2.56,3.22c.62-.6,1.17-1.13,1.64-1.59s1.1-.94,1.87-1.46c.65-.45,1.42-.81,2.31-1.09.89-.28,1.87-.41,2.96-.41,2.15,0,3.86.71,5.11,2.12,1.26,1.41,1.88,3.59,1.88,6.52v12.96c0,.6.1,1.1.31,1.49.21.39.56.69,1.06.89.4.16.79.27,1.18.35.39.08.82.13,1.31.17v1.71Z"></path><path class="cls-2" d="M711.63,530.53h-12.41v-1.71c.4-.03.8-.07,1.2-.1.41-.03.76-.1,1.07-.21.48-.16.84-.43,1.07-.81.23-.39.35-.89.35-1.51v-13.16c0-1.79-.41-3.18-1.23-4.15-.82-.97-1.84-1.46-3.06-1.46-.84,0-1.64.13-2.38.39-.74.26-1.42.62-2.04,1.09-.5.38-.92.79-1.25,1.23s-.59.81-.76,1.1v14.71c0,.6.1,1.1.31,1.49.21.39.56.69,1.06.89.4.16.75.27,1.07.35.32.08.74.13,1.25.17v1.71h-12.15v-1.71c.4-.03.78-.07,1.15-.1.37-.03.71-.1,1.02-.21.48-.16.84-.43,1.07-.81.23-.39.35-.89.35-1.51v-13.16c0-1.79-.41-3.18-1.23-4.15-.82-.97-1.84-1.46-3.07-1.46-.85,0-1.64.13-2.38.4-.74.27-1.43.63-2.05,1.1-.5.38-.92.81-1.27,1.28-.35.47-.61.83-.78,1.07v14.61c0,.59.12,1.08.36,1.47s.6.7,1.09.91c.36.17.73.3,1.11.39.38.09.8.15,1.27.18v1.71h-12.39v-1.71c.4-.03.81-.07,1.23-.1.42-.03.79-.1,1.1-.21.48-.15.84-.43,1.07-.81s.35-.89.35-1.51v-15.83c0-.55-.12-1.05-.38-1.49s-.6-.81-1.05-1.12c-.33-.21-.73-.37-1.21-.5-.48-.13-.98-.21-1.5-.25v-1.71l8.53-.57.36.36v3.65h.18c.43-.43.96-.94,1.58-1.53.62-.59,1.2-1.06,1.73-1.42.6-.41,1.36-.76,2.26-1.03s1.88-.41,2.93-.41c1.66,0,3.08.44,4.27,1.33s2.04,1.96,2.56,3.22c.62-.6,1.17-1.13,1.64-1.59s1.1-.94,1.87-1.46c.65-.45,1.42-.81,2.31-1.09.89-.28,1.87-.41,2.96-.41,2.15,0,3.86.71,5.11,2.12,1.26,1.41,1.88,3.59,1.88,6.52v12.96c0,.6.1,1.1.31,1.49.21.39.56.69,1.06.89.4.16.79.27,1.18.35.39.08.82.13,1.31.17v1.71Z"></path><path class="cls-2" d="M739.53,517.52c0,1.79-.29,3.56-.85,5.29s-1.38,3.2-2.43,4.41c-1.19,1.38-2.57,2.4-4.14,3.08-1.57.67-3.33,1.01-5.28,1.01-1.62,0-3.17-.31-4.63-.92-1.47-.61-2.77-1.5-3.91-2.68-1.12-1.16-2.01-2.56-2.68-4.23-.66-1.66-1-3.53-1-5.6,0-3.98,1.16-7.24,3.48-9.77,2.32-2.53,5.36-3.8,9.12-3.8s6.52,1.2,8.84,3.61c2.32,2.41,3.48,5.61,3.48,9.61ZM734.17,517.57c0-1.29-.13-2.66-.39-4.1-.26-1.44-.65-2.66-1.17-3.66-.55-1.07-1.28-1.93-2.18-2.57-.9-.65-2-.97-3.29-.97s-2.47.33-3.41.98c-.94.66-1.71,1.55-2.29,2.69-.55,1.05-.94,2.25-1.17,3.59-.22,1.34-.34,2.65-.34,3.9,0,1.65.13,3.18.4,4.59s.69,2.66,1.28,3.76c.59,1.1,1.33,1.97,2.21,2.6.89.63,1.99.94,3.3.94,2.16,0,3.87-1.04,5.13-3.13s1.89-4.96,1.89-8.64Z"></path><path class="cls-2" d="M771.36,530.53h-12.46v-1.71c.4-.03.83-.07,1.31-.1.47-.03.87-.1,1.18-.21.48-.16.84-.43,1.07-.81.23-.39.35-.89.35-1.51v-13.11c0-1.81-.43-3.21-1.28-4.19-.86-.98-1.9-1.47-3.12-1.47-.92,0-1.75.14-2.51.43-.76.28-1.43.63-2.02,1.05-.57.4-1.02.82-1.36,1.28-.34.46-.58.82-.74,1.1v14.66c0,.59.12,1.07.36,1.45.24.38.6.67,1.09.88.36.17.75.3,1.18.39.42.09.86.15,1.31.18v1.71h-12.49v-1.71c.4-.03.81-.07,1.23-.1.42-.03.79-.1,1.1-.21.48-.15.84-.43,1.07-.81.23-.39.35-.89.35-1.51v-15.73c0-.58-.12-1.12-.38-1.61-.25-.49-.6-.89-1.05-1.2-.33-.21-.72-.36-1.16-.45s-.93-.16-1.45-.19v-1.71l8.48-.57.36.36v3.59h.13c.41-.41.93-.91,1.55-1.49.62-.58,1.21-1.05,1.76-1.41.64-.41,1.4-.76,2.28-1.03.88-.28,1.87-.41,2.97-.41,2.45,0,4.26.76,5.44,2.29,1.18,1.53,1.77,3.56,1.77,6.09v13.27c0,.6.1,1.09.31,1.46s.56.66,1.06.87c.41.17.77.29,1.07.36.3.07.72.12,1.25.15v1.71Z"></path><path class="cls-2" d="M823.44,515.89c-.41.05-.97.13-1.67.25s-1.26.27-1.69.48c-.52.26-.88.63-1.1,1.1-.22.47-.32,1.03-.32,1.67v2.84c0,2.07.01,3.46.04,4.19.03.72.06,1.32.09,1.78-2.29,1.03-4.58,1.83-6.85,2.38s-4.51.83-6.7.83c-2.34,0-4.6-.44-6.77-1.32s-4.07-2.13-5.69-3.75c-1.64-1.64-2.94-3.63-3.9-5.98-.97-2.35-1.45-4.97-1.45-7.87s.46-5.39,1.38-7.78c.92-2.39,2.23-4.46,3.92-6.22,1.64-1.73,3.59-3.07,5.86-4.02,2.27-.96,4.69-1.44,7.28-1.44,2.07,0,3.87.25,5.4.75,1.53.5,2.89,1.1,4.06,1.81l1.06-1.76h2.07l.23,12.83h-2.12c-.36-1.41-.81-2.81-1.35-4.18s-1.23-2.6-2.07-3.68c-.84-1.09-1.88-1.95-3.09-2.6s-2.67-.97-4.36-.97c-1.85,0-3.49.38-4.94,1.12-1.45.75-2.71,1.87-3.78,3.35-1.05,1.43-1.86,3.22-2.43,5.36-.57,2.14-.85,4.53-.85,7.17,0,2.33.28,4.53.84,6.59.56,2.06,1.38,3.84,2.45,5.34,1.07,1.54,2.41,2.74,4.01,3.62,1.6.88,3.43,1.32,5.46,1.32,1.52,0,2.9-.23,4.16-.7,1.25-.47,2.14-.96,2.65-1.47.14-.9.21-1.8.22-2.71,0-.91.01-1.69.01-2.33v-2.02c0-.72-.1-1.37-.3-1.93-.2-.56-.61-.97-1.23-1.23-.57-.26-1.34-.45-2.31-.58-.97-.13-1.74-.21-2.29-.25v-1.89h16.08v1.89Z"></path><path class="cls-2" d="M850.54,517.52c0,1.79-.29,3.56-.85,5.29s-1.38,3.2-2.43,4.41c-1.19,1.38-2.57,2.4-4.14,3.08-1.57.67-3.33,1.01-5.28,1.01-1.62,0-3.17-.31-4.63-.92-1.47-.61-2.77-1.5-3.91-2.68-1.12-1.16-2.01-2.56-2.68-4.23-.66-1.66-1-3.53-1-5.6,0-3.98,1.16-7.24,3.48-9.77,2.32-2.53,5.36-3.8,9.12-3.8s6.52,1.2,8.84,3.61c2.32,2.41,3.48,5.61,3.48,9.61ZM845.18,517.57c0-1.29-.13-2.66-.39-4.1-.26-1.44-.65-2.66-1.17-3.66-.55-1.07-1.28-1.93-2.18-2.57-.9-.65-2-.97-3.29-.97s-2.47.33-3.41.98c-.94.66-1.71,1.55-2.29,2.69-.55,1.05-.94,2.25-1.17,3.59-.22,1.34-.34,2.65-.34,3.9,0,1.65.13,3.18.4,4.59s.69,2.66,1.28,3.76c.59,1.1,1.33,1.97,2.21,2.6.89.63,1.99.94,3.3.94,2.16,0,3.87-1.04,5.13-3.13s1.89-4.96,1.89-8.64Z"></path><path class="cls-2" d="M879.08,517.52c0,1.79-.29,3.56-.85,5.29s-1.38,3.2-2.43,4.41c-1.19,1.38-2.57,2.4-4.14,3.08-1.57.67-3.33,1.01-5.28,1.01-1.62,0-3.17-.31-4.63-.92-1.47-.61-2.77-1.5-3.91-2.68-1.12-1.16-2.01-2.56-2.68-4.23-.66-1.66-1-3.53-1-5.6,0-3.98,1.16-7.24,3.48-9.77,2.32-2.53,5.36-3.8,9.12-3.8s6.52,1.2,8.84,3.61c2.32,2.41,3.48,5.61,3.48,9.61ZM873.73,517.57c0-1.29-.13-2.66-.39-4.1-.26-1.44-.65-2.66-1.17-3.66-.55-1.07-1.28-1.93-2.18-2.57-.9-.65-2-.97-3.29-.97s-2.47.33-3.41.98c-.94.66-1.71,1.55-2.29,2.69-.55,1.05-.94,2.25-1.17,3.59-.22,1.34-.34,2.65-.34,3.9,0,1.65.13,3.18.4,4.59s.69,2.66,1.28,3.76c.59,1.1,1.33,1.97,2.21,2.6.89.63,1.99.94,3.3.94,2.16,0,3.87-1.04,5.13-3.13s1.89-4.96,1.89-8.64Z"></path><path class="cls-2" d="M910.68,530.06l-8.92.57-.39-.36v-2.38l-.21-.05c-.9,1-2,1.82-3.32,2.46-1.32.64-2.67.96-4.07.96s-2.84-.32-4.2-.97-2.53-1.55-3.52-2.73c-1.02-1.19-1.82-2.62-2.41-4.29-.59-1.67-.89-3.52-.89-5.53,0-1.84.32-3.59.96-5.25.64-1.66,1.51-3.1,2.63-4.34,1.05-1.15,2.34-2.08,3.86-2.77,1.52-.69,3.08-1.03,4.66-1.03,1.19,0,2.35.15,3.5.45,1.15.3,2.13.68,2.96,1.15v-8.89c0-.73-.12-1.39-.36-1.98-.24-.6-.58-1.05-1.01-1.36-.48-.33-1.13-.56-1.95-.71-.82-.15-1.7-.25-2.65-.32v-1.6l10.45-.57.39.39v34.37c0,.6.12,1.12.35,1.54.23.42.57.78,1.02,1.07.33.21.8.34,1.42.39.62.05,1.19.09,1.71.1v1.71ZM901.32,525.59v-14.92c-.14-.45-.36-.93-.67-1.45-.31-.52-.7-.99-1.16-1.42-.5-.43-1.08-.79-1.75-1.07-.67-.28-1.45-.43-2.35-.43-1.03,0-1.98.27-2.85.8-.87.54-1.64,1.3-2.31,2.3-.64.97-1.14,2.19-1.51,3.68s-.56,3.14-.56,4.95c0,1.45.14,2.76.41,3.94s.74,2.28,1.39,3.3c.6.97,1.37,1.74,2.31,2.33.94.59,2.05.88,3.34.88,1.38,0,2.52-.3,3.42-.91.9-.6,1.67-1.27,2.28-1.99Z"></path></g></svg>